<svg width="0" height="0" class="hidden">
  <symbol xmlns="http://www.w3.org/2000/svg" version="1.1" xmlns:xlink="http://www.w3.org/1999/xlink" xmlnsSvgjs="http://svgjs.com/svgjs" x="0" y="0" xml:space="preserve" viewBox="0 0 480 480" id="football">
    <g>
      <path d="M240 0C107.453 0 0 107.453 0 240s107.453 240 240 240 240-107.453 240-240C479.852 107.516 372.484.148 240 0zm8.566 69.191L332 35.84a224.492 224.492 0 0 1 27.414 14.777l.219.137a225.29 225.29 0 0 1 24.695 18.11l.672.585a227.354 227.354 0 0 1 10.223 9.262c.418.41.855.8 1.273 1.219a234.39 234.39 0 0 1 10.09 10.484c.27.305.527.625.797.93 2.855 3.199 5.601 6.511 8.265 9.879.641.8 1.282 1.601 1.903 2.402 2.89 3.742 5.687 7.55 8.328 11.48l-16.633 70.704-81.832 27.28-78.828-63.073zm-186.125 34.48c.621-.8 1.254-1.6 1.895-2.398a224.935 224.935 0 0 1 8.168-9.777c.305-.336.586-.68.887-1.016A217.481 217.481 0 0 1 83.44 80c.399-.39.797-.8 1.215-1.16a228.569 228.569 0 0 1 10.137-9.207l.8-.672a226.15 226.15 0 0 1 24.462-18l.312-.2A224.738 224.738 0 0 1 147.617 36l83.817 33.191v80.801l-78.832 63.063-81.832-27.23-16.633-70.704a233.682 233.682 0 0 1 8.304-11.45zm-9.64 259.09a222.72 222.72 0 0 1-6.746-10.96l-.52-.899a210.277 210.277 0 0 1-6.055-11.293l-.066-.12a222.882 222.882 0 0 1-10.535-24.802v-.078c-1.422-4-2.719-8.097-3.918-12.218l-.434-1.52a220.618 220.618 0 0 1-2.984-11.742c-.078-.387-.176-.754-.254-1.137a222.66 222.66 0 0 1-4.227-27.097l48.84-58.606 81.266 27.086 23.586 94.336L132 375.273zm240.472 94.782c-4 .992-8.105 1.848-12.21 2.617-.575.113-1.16.207-1.735.313-3.496.625-7.031 1.16-10.574 1.597-.945.121-1.883.25-2.824.364-3.29.382-6.61.671-9.938.91-1.047.07-2.082.176-3.129.242-4.254.262-8.543.414-12.863.414-3.957 0-7.89-.105-11.8-.313-.473 0-.927-.078-1.4-.113-3.48-.199-6.945-.46-10.402-.797l-.398-.074a227.948 227.948 0 0 1-22.559-3.598l-47.32-74.09 38.145-50.863h111.468l38.77 51.2zM458.77 288c-.082.383-.176.754-.258 1.137a230.481 230.481 0 0 1-2.985 11.742l-.43 1.52a224.8 224.8 0 0 1-3.921 12.218v.078a222.149 222.149 0 0 1-10.535 24.801l-.067.121a221.793 221.793 0 0 1-6.054 11.293l-.52.899a198.32 198.32 0 0 1-6.734 10.945l-78.93 12.445-39.023-51.52 23.574-94.312 81.265-27.086 48.84 58.606A222.142 222.142 0 0 1 458.77 288zm0 0" fill="#000000" opacity="1" data-original="#000000"></path>
    </g>
  </symbol>
  <symbol xmlns="http://www.w3.org/2000/svg" version="1.1" xmlns:xlink="http://www.w3.org/1999/xlink" xmlnsSvgjs="http://svgjs.com/svgjs" x="0" y="0" xml:space="preserve" viewBox="0 0 511.985 511.985" id="gamepad">
    <g>
      <path d="M511.528 309.682c-2.484-42.436-15.155-98.231-37.64-165.838a11.043 11.043 0 0 0-2.25-3.835l-37.107-40.546a10.644 10.644 0 0 0-7.859-3.469h-42.67c-1.656 0-3.281.391-4.766 1.125l-19.078 9.523H151.844l-19.093-9.523a10.693 10.693 0 0 0-4.765-1.125H85.33c-3 0-5.859 1.258-7.875 3.469l-37.092 40.546a10.584 10.584 0 0 0-2.25 3.835C15.614 211.451 2.943 267.247.458 309.682c-2.156 36.75 3.312 64.498 16.265 82.436 11.265 15.623 28.093 23.873 48.686 23.873 14.968 0 28.546-6.812 40.374-20.279 8.578-9.781 16.265-23.156 22.828-39.797 7.187-18.17 11.468-36.17 13.593-46.576h227.579c2.125 10.406 6.406 28.406 13.594 46.576 6.562 16.641 14.249 30.016 22.826 39.797 11.828 13.467 25.422 20.279 40.375 20.279 20.592 0 37.436-8.25 48.701-23.873 12.937-17.937 18.405-45.686 16.249-82.436z" fill="#5b55ed" data-original="#ed5564" opacity="1"></path>
      <path d="M263.529 259.122c4.171 4.164 4.171 10.922 0 15.094-4.156 4.156-10.923 4.156-15.079 0-4.172-4.172-4.172-10.93 0-15.094 4.156-4.164 10.923-4.164 15.079 0z" fill="#e6e9ed" data-original="#da4453" opacity="1"></path>
      <path d="M412.875 178.202c-4.172 4.172-10.921 4.172-15.077 0-4.172-4.164-4.172-10.914 0-15.085 4.156-4.164 10.905-4.164 15.077 0 4.172 4.172 4.172 10.921 0 15.085zM412.875 220.873c-4.172 4.164-10.921 4.164-15.077 0-4.172-4.164-4.172-10.922 0-15.086 4.156-4.164 10.905-4.164 15.077 0 4.172 4.164 4.172 10.922 0 15.086zM434.203 199.538c-4.156 4.164-10.906 4.164-15.078 0s-4.172-10.914 0-15.085c4.172-4.164 10.922-4.164 15.078 0 4.172 4.164 4.172 10.921 0 15.085zM391.548 199.538a10.68 10.68 0 0 1-15.093 0c-4.156-4.164-4.156-10.914 0-15.085a10.68 10.68 0 0 1 15.093 0c4.156 4.164 4.156 10.921 0 15.085z" fill="#e6e9ed" data-original="#e6e9ed"></path>
      <path d="M223.998 277.341c0 23.561-19.109 42.654-42.67 42.654s-42.67-19.094-42.67-42.654c0-23.578 19.109-42.679 42.67-42.679s42.67 19.101 42.67 42.679z" fill="#656d78" data-original="#656d78"></path>
      <path d="M181.327 223.998c-29.405 0-53.342 23.921-53.342 53.342 0 29.404 23.937 53.326 53.342 53.326s53.327-23.922 53.327-53.326c0-29.421-23.921-53.342-53.327-53.342zm0 85.341c-17.64 0-31.999-14.375-31.999-31.998 0-17.656 14.359-32.007 31.999-32.007s31.999 14.351 31.999 32.007c0 17.623-14.358 31.998-31.999 31.998z" fill="#434a54" data-original="#434a54"></path>
      <path d="M373.33 277.341c0 23.561-19.094 42.654-42.671 42.654-23.562 0-42.655-19.094-42.655-42.654 0-23.578 19.094-42.679 42.655-42.679 23.577-.001 42.671 19.101 42.671 42.679z" fill="#656d78" data-original="#656d78"></path>
      <path d="M330.659 223.998c-29.405 0-53.326 23.921-53.326 53.342 0 29.404 23.921 53.326 53.326 53.326 29.421 0 53.343-23.922 53.343-53.326 0-29.421-23.922-53.342-53.343-53.342zm0 85.341c-17.64 0-31.999-14.375-31.999-31.998 0-17.656 14.359-32.007 31.999-32.007 17.655 0 32.015 14.351 32.015 32.007 0 17.623-14.36 31.998-32.015 31.998z" fill="#434a54" data-original="#434a54"></path>
      <path d="M106.658 223.998c-5.891 0-10.671-4.773-10.671-10.672v-42.663c0-5.89 4.781-10.664 10.671-10.664s10.671 4.773 10.671 10.664v42.663c0 5.899-4.78 10.672-10.671 10.672z" fill="#f5f7fa" data-original="#f5f7fa"></path>
      <path d="M127.986 202.663H85.33c-5.89 0-10.671-4.773-10.671-10.664s4.781-10.672 10.671-10.672h42.655c5.89 0 10.671 4.781 10.671 10.672.001 5.89-4.78 10.664-10.67 10.664z" fill="#e6e9ed" data-original="#e6e9ed"></path>
      <path d="M181.323 106.643h149.33v42.686h-149.33z" fill="#434a54" data-original="#ffce54" opacity="1"></path>
      <path d="M495.279 392.118c8.922-12.359 14.28-29.375 16.062-50.779-.031 0-59.732 43.545-117.262 36.279 0 0 .047.406.172 1.109 3.75 6.5 7.749 12.172 11.952 16.984 11.828 13.467 25.422 20.279 40.375 20.279 20.592.001 37.436-8.249 48.701-23.872zM16.723 392.118C7.802 379.759 2.427 362.743.661 341.339c0 0 59.717 43.545 117.262 36.279l-.172 1.109c-3.766 6.5-7.75 12.172-11.968 16.984-11.828 13.467-25.405 20.279-40.374 20.279-20.593.001-37.42-8.249-48.686-23.872zM70.878 106.642h80.966l-19.093-9.523a10.693 10.693 0 0 0-4.765-1.125H85.33c-3 0-5.859 1.258-7.875 3.469l-6.577 7.179zM441.125 106.642h-80.951l19.078-9.523a10.741 10.741 0 0 1 4.766-1.125h42.67c2.984 0 5.844 1.258 7.859 3.469l6.578 7.179z" fill="#434a54" data-original="#434a54"></path>
    </g>
  </symbol>
  <symbol xmlns="http://www.w3.org/2000/svg" version="1.1" xmlns:xlink="http://www.w3.org/1999/xlink" xmlnsSvgjs="http://svgjs.com/svgjs" x="0" y="0" xml:space="preserve" viewBox="0 0 483 483.196" id="tableTennis">
    <g>
      <path fill="#57524e" d="M217.852 17.594C155.617-3.172 87.016 16.332 45.016 66.734c-42.004 50.399-48.82 121.391-17.172 178.86l124.222 27.027zm0 0" opacity="1" data-original="#57524e"></path>
      <path fill="#ffdfab" d="m180.348 287.707-4.532-2.45-13.3 75.54a122.014 122.014 0 0 1 50.125-46.809 120.784 120.784 0 0 0-32.293-26.281zm0 0" opacity="1" data-original="#ffdfab"></path>
      <path fill="#ffdfab" d="m151.332 271.996 24.484 13.262 4.532 2.449a120.816 120.816 0 0 1 32.293 26.273 122.317 122.317 0 0 1 24.066 41.934l3.36-83.918zm0 0" opacity="1" data-original="#ffdfab"></path>
      <path fill="#bfbfbf" d="M232.066 471.996h80l-1.28-32h-77.438zm0 0" opacity="1" data-original="#bfbfbf"></path>
      <path fill="#ffdfab" d="m304.066 271.996 3.36 83.918a121.739 121.739 0 0 1 56.36-68.207l29.081-15.71zM240.066 271.996l-3.359 83.918-3.36 84.082h77.438l-3.36-84.082-3.359-83.918zm0 0" opacity="1" data-original="#ffdfab"></path>
      <path fill="#db4b40" d="M396.313 67.27C360.137 22.2 302.43.2 245.43 9.746S141.04 58.895 121.52 113.293c-19.516 54.398-8.118 115.094 29.812 158.703h241.535a158.265 158.265 0 0 0 35.887-136.473" opacity="1" data-original="#db4b40"></path>
      <path fill="#fff2d9" d="M464.066 95.996c0 22.09-17.91 40-40 40s-40-17.91-40-40 17.91-40 40-40 40 17.91 40 40zm0 0" opacity="1" data-original="#fff2d9"></path>
      <path fill="#ffdfab" d="M114.547 264.46 64.195 458.18l78.168 17.015 33.664-191.12zm0 0" opacity="1" data-original="#ffdfab"></path>
      <path fill="#ffdfab" d="m27.844 245.594 25.023 21.515a121.739 121.739 0 0 1 40.567 78.637l21.984-80.086zm0 0" opacity="1" data-original="#ffdfab"></path>
      <path fill="#bfbfbf" d="m72.066 423.996-7.87 34.184 79.87 13.816 8-32zm0 0" opacity="1" data-original="#bfbfbf"></path>
      <path d="M424.066 47.996a47.737 47.737 0 0 0-26.754 8.168C352.45 5.602 281.533-12.93 217.668 9.22c-4.61-1.43-9.29-2.711-13.977-3.727C139.54-8.773 72.977 15.844 33.547 68.422-5.88 121-10.871 191.793 20.793 249.379a8.073 8.073 0 0 0 1.89 2.191l-.066.075 24.953 21.472a113.44 113.44 0 0 1 37.696 72.2L56.465 456.163a8 8 0 0 0 6.043 9.84l78.168 17.016a8.291 8.291 0 0 0 1.703.175 8 8 0 0 0 7.879-6.61l19.87-112.796a113.586 113.586 0 0 1 40.548-39.664 114.456 114.456 0 0 1 17.992 33.145l-4.602 114.406a8.01 8.01 0 0 0 2.227 5.863 8.01 8.01 0 0 0 5.773 2.457h80a8.01 8.01 0 0 0 5.774-2.457 8.01 8.01 0 0 0 2.226-5.863l-4.574-114.45a113.325 113.325 0 0 1 52.11-62.48l29.074-15.71-.051-.087a7.733 7.733 0 0 0 2.32-1.754 168.422 168.422 0 0 0 41.121-109.199 169.436 169.436 0 0 0-2.238-26.031c22.793-6.852 37.121-29.375 33.672-52.922-3.445-23.55-23.633-41.02-47.434-41.047zM19.41 137.316c17.352-79.07 93.602-130.683 173.457-117.41a166.343 166.343 0 0 0-60.313 240.281l-99.359-21.632A152.072 152.072 0 0 1 19.41 137.316zm38.656 123.727-1.07-.926 47.719 10.399-11.008 42.351a129.063 129.063 0 0 0-35.64-51.824zm16 191.098 4.801-18.45 60.36 13.418-3.297 18.485zm67.938-20.801-59.121-13.137 37.512-144.289 29.601 6.45 16.957 9.183zm33.965-100.633 5.77-32.75a113.088 113.088 0 0 1 18.023 14.04 129.004 129.004 0 0 0-23.825 18.702zm8.218-50.023-1.289-.688h48.84l-1.742 43.727a129.114 129.114 0 0 0-45.844-43.047zm112.192-.688 6.078 152h-60.789l6.078-152zm-56 184 .64-16h62.063l.64 16zm73.742-140.273-1.726-43.727h48.84l-1.329.719a128.987 128.987 0 0 0-45.77 43.008zm75-59.727H155.066C102.2 200.168 110.375 105.72 173.426 51.93c63.05-53.793 157.61-46.993 212.312 15.265a47.863 47.863 0 0 0 36.215 76.672 152.278 152.278 0 0 1 2.113 24.13 152.129 152.129 0 0 1-34.945 96zm34.945-136c-17.671 0-32-14.328-32-32s14.329-32 32-32 32 14.328 32 32-14.328 32-32 32zm0 0" fill="#000000" opacity="1" data-original="#000000"></path>
      <path d="M256.066 183.996h16c.047-44.164 35.836-79.953 80-80h8v-16h-8c-52.996.059-95.941 43.004-96 96zM256.066 199.996h16v16h-16zm0 0" fill="#000000" opacity="1" data-original="#000000"></path>
    </g>
  </symbol>
  <symbol xmlns="http://www.w3.org/2000/svg" version="1.1" xmlns:xlink="http://www.w3.org/1999/xlink" xmlnsSvgjs="http://svgjs.com/svgjs" x="0" y="0" xml:space="preserve" viewBox="0 0 192.419 203.68" id="throwBall">
    <g>
      <path d="M187.153 53.269c-41.11-14.965-75.654-16.473-85.026-16.589a24.611 24.611 0 0 1-7.636 7.077c-1.188 3.002-3.466 5.675-6.641 7.369-6.615 3.529-14.594 1.509-18.042-4.478l-9.684 3.596c-.138.053-.277.128-.415.194-.469.121-.934.28-1.389.491L31.124 63.585c-1.742-3.637-3.958-8.258-6.179-12.878a4767.576 4767.576 0 0 0-4.103-8.516c-8.203-1.11-15.007-6.673-17.893-14.171a8.006 8.006 0 0 0-1.733 10.445c1.647 3.188 12.327 25.433 18.891 39.164a8.002 8.002 0 0 0 7.223 4.552 7.97 7.97 0 0 0 3.37-.749l27.79-12.934c10.242 12.935 14.786 23.299 13.334 48.849-.111 1.112-.381 2.543-.621 4.032-.134.443-.25.895-.336 1.361l-5.47 29.587 23.95 7.967 6.103-33.009a12.53 12.53 0 0 0 .187-2.838.494.494 0 0 1 .036-.011c.803.505 1.668.935 2.604 1.256l36.951 12.654 17.858-20.31-36.727-12.578c1.884-19.393 2.714-33.719-2.21-52.099 14.812 1.259 39.739 4.83 67.532 14.947a7.977 7.977 0 0 0 2.736.484 8.002 8.002 0 0 0 2.736-15.521zM6.491 42.079zM64.599 156.64l-40.385 22.633c-6.022 3.375-8.168 10.993-4.793 17.016a12.497 12.497 0 0 0 17.016 4.793l45.5-25.499a12.498 12.498 0 0 0 6.181-8.632l.497-2.687-23.95-7.967zM140.244 140.062l11.449 53.721c1.252 5.874 6.439 9.897 12.213 9.897.863 0 1.74-.091 2.618-.277 6.752-1.439 11.059-8.079 9.62-14.831l-12.925-60.646c-.762-3.576-3.053-6.581-6.192-8.316l-17.705 20.137z" fill="#000000" opacity="1" data-original="#000000"></path>
      <circle cx="23.86" cy="20" r="20" fill="#000000" opacity="1" data-original="#000000"></circle>
      <circle cx="82.067" cy="22.643" r="22.5" transform="rotate(-7.81 82.23 22.675)" fill="#000000" opacity="1" data-original="#000000"></circle>
    </g>
  </symbol>
  <symbol xmlns="http://www.w3.org/2000/svg" version="1.1" xmlns:xlink="http://www.w3.org/1999/xlink" xmlnsSvgjs="http://svgjs.com/svgjs" x="0" y="0" xml:space="preserve" viewBox="0 0 500 500" id="tugOfWar">
    <g>
      <g fill-rule="evenodd" clip-rule="evenodd">
        <path fill="#c89d8d" d="M34.382 235.783a6.738 6.738 0 0 1 0-13.476h431.236a6.738 6.738 0 0 1 0 13.476z" opacity="1" data-original="#c89d8d"></path>
        <path fill="#a37767" d="M67.101 222.306h75.984l7.06 13.476h-81.35c-1.09-4.548-1.683-9.058-1.694-13.476zm96.289 0h54.513l3.28 2.82c3.376 2.902 4.592 7.015 3.852 10.657h-33.098c-11.979-1.091-21.285-5.872-28.547-13.477zm84.16 0h57.562l6.908 13.476h-61.004a310.439 310.439 0 0 1-3.466-13.476zm77.811 0h88.158c3.623 2.923 4.854 7.248 2.857 12.914-.066.187-.138.375-.213.563h-66.338z" opacity="1" data-original="#a37767"></path>
        <path fill="#60b7fe" d="m187.295 288.613 64.464 85.308c6.401 8.471 4.456 20.953-4.323 27.738-8.779 6.786-18.311-4.552-25.419-12.43l-56.931-63.088z" opacity="1" data-original="#60b7fe"></path>
        <path fill="#48a0e8" d="m187.295 288.613 15.945 21.101c-.444 1.901-1.148 3.793-2.079 5.639l-16.42 32.569-19.655-21.78z" opacity="1" data-original="#48a0e8"></path>
        <path fill="#88c8fe" d="m213.757 231.205-41.573-19.626-28.139-16.84c4.071 39.246 27.414 65.814 49.004 93.536 4.007 5.146 2.395 12.288-.646 18.319l-47.492 94.198c-4.974 9.865-16.946 14.233-26.606 9.707s1.636-26.367 5.421-36.701l22.913-62.56c-28.558-18.742-71.26-63.96-69.378-101.6 1.025-20.494 22.004-68.055 48.348-59.002l91.508 52.198 14.174 12.186c9.375 8.059 2.102 25.455-17.534 16.185z" opacity="1" data-original="#88c8fe"></path>
        <circle cx="69.005" cy="150.397" r="29.991" fill="#e8bc8e" transform="rotate(-45 68.982 150.421)" opacity="1" data-original="#e8bc8e"></circle>
        <path fill="#fcd4a9" d="M59.403 178.818c-11.854-4.004-20.389-15.215-20.389-28.42s8.535-24.417 20.389-28.421c11.854 4.004 20.389 15.215 20.389 28.421 0 13.205-8.535 24.416-20.389 28.42z" opacity="1" data-original="#fcd4a9"></path>
        <path fill="#e33f65" d="m353.753 322.034-31.895 59.534c-5.125 9.567-17.764 27.402-27.628 22.877-9.865-4.526-12.369-13.934-6.78-23.238l13.003-21.645 17.608-54.377 14.469-4.025z" opacity="1" data-original="#e33f65"></path>
        <path fill="#bd2d43" d="m353.753 322.034-14.928 27.864-15.286-19.083c-3.394-2.774-7.106-5.69-10.957-8.712l5.479-16.919 14.469-4.025z" opacity="1" data-original="#bd2d43"></path>
        <circle cx="310.14" cy="117.704" r="29.991" fill="#e8bc8e" opacity="1" data-original="#e8bc8e"></circle>
        <path fill="#fcd4a9" d="M300.538 146.124c-11.854-4.004-20.389-15.215-20.389-28.42s8.535-24.417 20.389-28.42c11.854 4.004 20.389 15.215 20.389 28.42s-8.535 24.417-20.389 28.42z" opacity="1" data-original="#fcd4a9"></path>
        <path fill="#fa6e85" d="M426.483 225.113c-3.183 9.033-17.275 18.974-34.765 3.932l-31.464-3.192-53.003-29.198 45.034 87.853 54.001 79.905c6.077 8.993 19.162 25.636 10.691 32.421-8.471 6.786-20.953 5.407-27.739-3.064l-58.12-72.557c-15.197-12.421-36.745-27.667-48.692-42.685-12.405-15.595-42.131-106.042-24.104-122.628 7.407-6.815 26.553-10.047 39.967-6.44 12.394 3.333 60.322 38.967 72.618 47.669l45.55 11.732c8.742 2.252 13.026 7.739 10.026 16.252z" opacity="1" data-original="#fa6e85"></path>
        <path fill="#f0b16e" d="M438.654 128.786a6.71 6.71 0 0 1 11.213-7.369l21.101 32.043a6.709 6.709 0 0 1-11.212 7.37zm3.771 192.942a6.716 6.716 0 1 1-11.265-7.317l23.535-36.209a6.716 6.716 0 1 1 11.265 7.317zm-27.309-36.764 31.535-21.853a6.718 6.718 0 0 0-7.633-11.055l-31.535 21.853a6.718 6.718 0 0 0 7.633 11.055zm-2.944-127.749 31.535 21.853a6.718 6.718 0 0 0 7.633-11.055l-31.535-21.853a6.717 6.717 0 1 0-7.633 11.055z" opacity="1" data-original="#f0b16e"></path>
      </g>
    </g>
  </symbol>
  <symbol xmlns="http://www.w3.org/2000/svg" version="1.1" xmlns:xlink="http://www.w3.org/1999/xlink" xmlnsSvgjs="http://svgjs.com/svgjs" x="0" y="0" xml:space="preserve" viewBox="0 0 512 512" id="armWrestling">
    <g>
      <path d="M300.062 368.585H502v-64.604H11.021v64.604H212.11z" fill="#ffffff" data-original="#ffffff"></path>
      <path d="M11.021 368.585h47.488v97.873H11.021zM454.512 368.585H502v97.873h-47.488z" fill="#bdd3dd" data-original="#bdd3dd"></path>
      <path d="M300.062 368.585H502v-64.604H11.021v64.604H212.11M11.021 466.458v-97.873h47.488v97.873M454.512 466.458v-97.873H502v97.873" fill="none" stroke="#000000" stroke-width="20" stroke-linecap="round" stroke-linejoin="round" stroke-miterlimit="10" data-original="#000000"></path>
      <path d="M10 86.623s15.566 2.432 38.068 6.993c6.017 1.22 12.53 3.092 19.374 5.879 45.985 18.73 65.458 98.398 65.458 98.398s26.114-30.626 69.868-34.007c15.338-1.253 27.907-9.808 36.849-22.142 5.265-7.302 9.503-16.344 11.876-24.209.945-3.11 2.017-6.174 2.84-9.32 1.721-5.326 9.151-6.697 14.881-6.273h8.779c7.14 0 12.975-5.551 13.434-12.578.02 1.436.041 2.964.071 4.522.163 10.49-.784 20.971-2.882 31.247-.041.194-.081.377-.112.55-15.389 73.575-73.463 132.902-132.933 175.373a15.893 15.893 0 0 1-13.342 2.363c-42.104-11.407-61.466-55.059-61.466-55.059C28.404 240.476 10 197.985 10 197.985V86.623z" fill="#ffd0c6" data-original="#ffd0c6"></path>
      <path d="M502 197.985s-18.404 42.491-70.754 50.374c0 0-19.361 43.652-61.476 55.059a15.867 15.867 0 0 1-13.332-2.363c-16.785-11.886-65.886-49.6-97.51-104.252 9.014-14.3 16.591-29.373 22.233-45.18 7.241 6.569 16.449 11.356 28.069 12.263 43.754 3.381 69.868 34.007 69.868 34.007s19.473-67.088 65.458-85.818C477.006 98.866 502 95.262 502 95.262v102.723zM291.459 64.879v23.598c0 7.436-6.028 13.464-13.464 13.464h-12.039c-4.469 0-9.86 1.52-11.622 6.273 0 0-3.93 13.231-4.348 14.27-2.699 6.742-6.06 13.312-10.338 19.219l-8.993-9.655a25.28 25.28 0 0 1-6.773-17.212V74.3a19.124 19.124 0 0 1 9.727-16.652l26.471-9.421c12.954-7.282 31.379.906 31.379 16.652z" fill="#c68986" data-original="#c68986"></path>
      <path d="M10 86.623s15.566 2.432 38.068 6.993c6.017 1.22 12.53 3.092 19.374 5.879 45.985 18.73 65.458 98.398 65.458 98.398s26.114-30.626 69.868-34.007c15.338-1.253 27.907-9.808 36.849-22.142 5.265-7.302 9.503-16.344 11.876-24.209.945-3.11 2.017-6.174 2.84-9.32 1.721-5.326 9.151-6.697 14.881-6.273h8.779c7.14 0 12.975-5.551 13.434-12.578.02 1.436.041 2.964.071 4.522.163 10.49-.784 20.971-2.882 31.247-.041.194-.081.377-.112.55-15.389 73.575-73.463 132.902-132.933 175.373a15.893 15.893 0 0 1-13.342 2.363c-42.104-11.407-61.466-55.059-61.466-55.059C28.404 240.476 10 197.985 10 197.985" fill="none" stroke="#000000" stroke-width="20" stroke-linecap="round" stroke-linejoin="round" stroke-miterlimit="10" data-original="#000000"></path>
      <path d="M502 197.985s-18.404 42.491-70.754 50.374c0 0-19.361 43.652-61.476 55.059a15.867 15.867 0 0 1-13.332-2.363c-16.785-11.886-65.886-49.6-97.51-104.252 9.014-14.3 16.591-29.373 22.233-45.18 7.241 6.569 16.449 11.356 28.069 12.263 43.754 3.381 69.868 34.007 69.868 34.007s19.473-67.088 65.458-85.818C477.006 98.866 502 95.262 502 95.262M291.459 64.879v23.598c0 7.436-6.028 13.464-13.464 13.464h-12.039c-4.469 0-9.86 1.52-11.622 6.273 0 0-3.93 13.231-4.348 14.27-2.699 6.742-6.06 13.312-10.338 19.219l-8.993-9.655a25.28 25.28 0 0 1-6.773-17.212V74.3a19.124 19.124 0 0 1 9.727-16.652l26.471-9.421c12.954-7.282 31.379.906 31.379 16.652zM256 368.585h0" fill="none" stroke="#000000" stroke-width="20" stroke-linecap="round" stroke-linejoin="round" stroke-miterlimit="10" data-original="#000000"></path>
    </g>
  </symbol>
  <symbol xmlns="http://www.w3.org/2000/svg" version="1.1" xmlns:xlink="http://www.w3.org/1999/xlink" xmlnsSvgjs="http://svgjs.com/svgjs" x="0" y="0" xml:space="preserve" viewBox="0 0 64 64" id="badminton">
    <g>
      <g fill="#bcbec0">
        <path d="m45.022 47.203.89-.268 2.745 9.13-.89.267zM48.032 46.811l.918-.147 1.512 9.446-.917.147zM54.876 56.065l2.745-9.13.89.268-2.744 9.13zM52.946 56.132l1.512-9.446.918.147-1.512 9.446zM51.27 47.9h.93v8.29h-.93z" fill="#bcbec0" opacity="1" data-original="#bcbec0"></path>
      </g>
      <path fill="#e6e7e8" d="M63.67 41.47c-2.22 6-4.86 7.5-6.16 7.86a1 1 0 0 1-.39.05 1.21 1.21 0 0 1-1-.53c-2.06-3.06 2.19-11.06 2.19-11.06.47-1.21 2.62-1.47 3.75-1.53a1.2 1.2 0 0 1 .46.07 1.17 1.17 0 0 1 .64.5 5.19 5.19 0 0 1 .51 4.64z" opacity="1" data-original="#e6e7e8"></path>
      <path fill="#d1d3d4" d="M59.15 41.1c-1.09 6-3.35 7.94-4.53 8.54a1.33 1.33 0 0 1-.62.13 1.21 1.21 0 0 1-.83-.36c-2.59-2.63.11-11.27.11-11.27.32-1.75 4.09-2.33 4.09-2.33h.06a5.76 5.76 0 0 1 1.72 5.29z" opacity="1" data-original="#d1d3d4"></path>
      <path fill="#e6e7e8" d="M52.45 49.8a1.22 1.22 0 0 1-.71.18 1.24 1.24 0 0 1-.73-.27c-1-.83-2.8-3.19-2.49-9.4a5.8 5.8 0 0 1 2.88-4.68h.08S55 37 54.92 38.81c0 0 .66 9.02-2.47 10.99z" opacity="1" data-original="#e6e7e8"></path>
      <path fill="#d1d3d4" d="M49.9 49.41a1.26 1.26 0 0 1-.63.34 1.27 1.27 0 0 1-.81-.11c-1.19-.59-3.44-2.5-4.53-8.53a5.78 5.78 0 0 1 1.73-5.26h.05s3.77.58 4.09 2.33c0-.04 2.7 8.6.1 11.23z" opacity="1" data-original="#d1d3d4"></path>
      <path fill="#e6e7e8" d="M46.94 48.84a1.13 1.13 0 0 1-.58.46 1.22 1.22 0 0 1-.8 0c-1.27-.36-3.84-1.81-6-7.54a5.76 5.76 0 0 1 .72-5.47v-.07s3.81-.12 4.45 1.54c.02.03 4.27 8.02 2.21 11.08z" opacity="1" data-original="#e6e7e8"></path>
      <path fill="#de2b26" d="M47 55.92v1.62h9.41v-1.62a.29.29 0 0 0-.29-.3h-8.8a.3.3 0 0 0-.32.3z" opacity="1" data-original="#de2b26"></path>
      <path fill="#bcbec0" d="M47 57.54v1.76a4.71 4.71 0 0 0 4.73 4.7 4.7 4.7 0 0 0 4.7-4.7v-1.76z" opacity="1" data-original="#bcbec0"></path>
      <path fill="#02020210" d="M56.43 58.41v.89a4.71 4.71 0 0 1-9.41 0v-.89a4.71 4.71 0 1 0 9.41 0z" opacity="1" data-original="#02020210"></path>
      <path fill="#02020212" d="M63.67 41.47c-2.22 6-4.86 7.5-6.16 7.86a1 1 0 0 1-.39.05l5.42-13.05a1.17 1.17 0 0 1 .64.5 5.19 5.19 0 0 1 .49 4.64z" opacity="1" data-original="#02020212"></path>
      <path fill="#02020210" d="M59.15 41.1c-1.09 6-3.35 7.94-4.53 8.54a1.33 1.33 0 0 1-.62.13l3.37-14h.06a5.76 5.76 0 0 1 1.72 5.33zm-6.7 8.7a1.22 1.22 0 0 1-.71.18l-.34-14.35h.08S55 37 54.92 38.81c0 0 .66 9.02-2.47 10.99zm-2.55-.39a1.26 1.26 0 0 1-.63.34l-3.56-13.94s3.77.58 4.09 2.33c0 0 2.7 8.64.1 11.27z" opacity="1" data-original="#02020210"></path>
      <path fill="#02020212" d="M46.94 48.84a1.13 1.13 0 0 1-.58.46l-6.11-13v-.07s3.81-.12 4.45 1.54c.05.02 4.3 8.01 2.24 11.07z" opacity="1" data-original="#02020212"></path>
      <path fill="#a7a9ac" d="m54.92 30.28.64-.55-2.82-2.82 2.41-2.42 2.65 2.65c.06-.06.1-.13.15-.19s.23-.34.34-.52l-2.54-2.53 2.42-2.42 1.92 1.92c.15-.26.28-.53.42-.77l-1.75-1.74 2.42-2.42.88.88c.13-.33.25-.61.35-.84l-.64-.64 1.35-1.34c.18-.57.33-1.11.45-1.65l-2.39 2.4-2.42-2.42 2.42-2.42 2.4 2.4a9.54 9.54 0 0 0 .19-1l-2-2 2.14-2.13c0-.36-.1-.7-.17-1l-2.56 2.56-2.42-2.43 3.62-3.63a7.07 7.07 0 0 0-.48-.7l-3.73 3.73-2.42-2.42 3.73-3.72a7.27 7.27 0 0 0-.71-.49l-3.62 3.62-2.41-2.42L55.29.26c-.33-.07-.67-.13-1-.17l-2.15 2.13-2-2c-.32 0-.65.11-1 .19l2.4 2.39-2.41 2.43-2.42-2.42L49.09.43c-.53.12-1.09.27-1.64.45l-1.33 1.34-.63-.63c-.24.1-.51.21-.83.36l.86.86-2.41 2.42-1.73-1.73-.79.4 1.92 1.92-2.42 2.42-2.53-2.53-.64.42a.2.2 0 0 0-.07.06l2.65 2.65-2.42 2.41-2.83-2.83a8.11 8.11 0 0 0-.55.64l2.79 2.79-2.42 2.42L31.76 12a6.6 6.6 0 0 0-.38.81l2.09 2.09-2.41 2.42-.79-.79c-.06.35-.1.71-.13 1.07l.32.31-.36.36a11.61 11.61 0 0 0 0 1.18l.95-.94 2.41 2.42-2.6 2.6c.09.3.19.6.3.88l2.9-2.89 2.42 2.42-3.63 3.63c.15.24.33.46.5.68l3.72-3.72 2.42 2.42-3.72 3.72c.22.17.44.35.67.51l3.64-3.64 2.42 2.42-2.89 2.9c.28.11.58.21.87.31l2.62-2.61 2.41 2.41-1 1a9.26 9.26 0 0 0 1.18 0l.37-.37.32.32c.35 0 .71-.07 1.06-.13l-.79-.79 2.42-2.41 2.08 2.08.81-.39-2.3-2.29 2.42-2.42zm5.67-12.41-2.42 2.42-2.42-2.42 2.42-2.42zm-10.87 6 2.42-2.42 2.42 2.42-2.42 2.42zm1.83 3-2.42 2.42-2.42-2.42 2.42-2.42zm1.19-6 2.41-2.42 2.42 2.42-2.42 2.43zm7.85-9-2.42 2.42-2.42-2.42 2.42-2.42zm-13.88 9 2.42-2.42 2.42 2.42-2.42 2.43zm1.83 3-2.42 2.42-2.42-2.39 2.42-2.42zm1.18-6 2.42-2.42 2.42 2.42-2.42 2.42zm3-3 2.41-2.42 2.42 2.42-2.42 2.42zm4.83-6-2.42 2.41-2.39-2.44 2.41-2.42zm-13.87 9 2.42-2.42 2.42 2.42-2.42 2.42zm1.82 3-2.39 2.43-2.42-2.41 2.42-2.42zm1.19-6 2.42-2.42 2.42 2.42-2.42 2.42zm3-3 2.42-2.42 2.42 2.42-2.42 2.42zm4.84-6-2.39 2.37-2.42-2.42 2.42-2.41zm-13.87 9 2.42-2.42 2.41 2.42-2.41 2.42zm1.82 3-2.42 2.42-2.42-2.42 2.42-2.42zm1.19-6 2.42-2.42 2.42 2.42-2.42 2.42zm3-3 2.42-2.42 2.42 2.42-2.42 2.41zm1.83-3-2.38 2.37-2.42-2.42 2.42-2.41zm-10.87 6 2.42-2.42 2.42 2.42-2.42 2.42zm1.83 3-2.42 2.42-2.42-2.42 2.42-2.42zm1.19-6 2.42-2.42 2.41 2.42-2.41 2.41zm-9 9 2.42-2.42 2.42 2.42-2.42 2.42zm3 3 2.42-2.42 2.42 2.42-2.41 2.43zm3 3 2.42-2.42 2.42 2.42-2.42 2.42zm3 3 2.42-2.42 2.41 2.42-2.41 2.42zm3 3 2.42-2.42 2.42 2.42-2.42 2.42z" opacity="1" data-original="#a7a9ac"></path>
      <path fill="#f47421" d="M57.8 27.14c.06-.06.1-.13.15-.19s.23-.34.34-.52c.68-1 1.28-2.06 1.8-3 .15-.26.28-.53.42-.77.66-1.28 1.18-2.43 1.55-3.28.13-.33.25-.61.35-.84.17-.45.28-.72.3-.76.16-.42.29-.82.41-1.22.18-.57.33-1.11.45-1.65a9.54 9.54 0 0 0 .19-1 14 14 0 0 0 .14-4.13c0-.36-.1-.7-.17-1a10.61 10.61 0 0 0-1.36-3.48 7.07 7.07 0 0 0-.48-.7 7.38 7.38 0 0 0-1.16-1.26 7.08 7.08 0 0 0-1.25-1.24 7.27 7.27 0 0 0-.71-.49A10.44 10.44 0 0 0 55.29.26c-.33-.07-.67-.13-1-.17a14.27 14.27 0 0 0-4.12.14c-.32 0-.65.11-1 .19h-.06c-.55.13-1.11.28-1.66.46-.4.12-.79.26-1.2.41l-.76.3c-.24.1-.51.21-.83.36-.86.36-2 .88-3.28 1.55l-.79.4c-1 .53-2 1.13-3 1.81l-.64.42a.2.2 0 0 0-.07.06 15.52 15.52 0 0 0-2.6 2.23 8.11 8.11 0 0 0-.55.64A14.26 14.26 0 0 0 31.76 12a6.6 6.6 0 0 0-.38.81 14.24 14.24 0 0 0-1.11 3.72c-.06.35-.1.71-.13 1.07a5 5 0 0 0 0 .67 11.61 11.61 0 0 0 0 1.18 9.71 9.71 0 0 0 .11 1.21v.13a16.32 16.32 0 0 0 .64 2.74c.09.3.19.6.3.88a13.79 13.79 0 0 0 .75 1.6 3 3 0 0 1 .21 2.47 9.34 9.34 0 0 1-2.68 4l-12 12 2.13 2.12 12-12a9.28 9.28 0 0 1 4-2.69 3 3 0 0 1 2.45.21 13.94 13.94 0 0 0 1.61.75c.28.11.58.21.87.31a16.66 16.66 0 0 0 2.77.63h.2a10.4 10.4 0 0 0 1.11.1 9.26 9.26 0 0 0 1.18 0h.69s.71-.07 1.06-.13a15.26 15.26 0 0 0 3.71-1.12l.81-.39a16.25 16.25 0 0 0 2.9-1.93l.64-.55c.16-.14.32-.3.47-.45a15.25 15.25 0 0 0 1.73-2.2zm-3.91 2.11a14.25 14.25 0 0 1-3 1.87 7.3 7.3 0 0 1-.82.36 13.08 13.08 0 0 1-2.71.78 11 11 0 0 1-2.35.19 10.66 10.66 0 0 1-1.38-.09h-.21a11.71 11.71 0 0 1-1.75-.36 8.06 8.06 0 0 1-.91-.28 12.39 12.39 0 0 1-3.24-1.6 5.49 5.49 0 0 1-.69-.5 11.71 11.71 0 0 1-2.41-2.41 5.49 5.49 0 0 1-.5-.69 13.11 13.11 0 0 1-1.6-3.25 7.49 7.49 0 0 1-.27-.91 11.21 11.21 0 0 1-.37-1.76v-.23a12.26 12.26 0 0 1-.13-1.37 11 11 0 0 1 .18-2.36 13.08 13.08 0 0 1 .78-2.71 7.3 7.3 0 0 1 .36-.82 14 14 0 0 1 1.87-3 8.39 8.39 0 0 1 .56-.63 13.53 13.53 0 0 1 2.45-2.13l.15-.11.71-.47c1-.67 2.09-1.26 3.06-1.78l.79-.4c.92-.47 1.77-.86 2.45-1.16 1.12-.48 1.83-.75 1.86-.76l.14-.05a19.17 19.17 0 0 1 3.49-.95c.36-.06.72-.1 1.05-.13.51-.05 1-.07 1.45-.07s.76 0 1.11.07a9.91 9.91 0 0 1 3.7 1.15c.27.15.51.31.73.46a6.7 6.7 0 0 1 .92.76c.17.17.27.3.29.32l.06.07.07.06a5.89 5.89 0 0 1 1.08 1.2c.15.22.3.46.45.73A9.67 9.67 0 0 1 62.46 10c0 .35.07.72.08 1.11s0 .95-.07 1.46a7.62 7.62 0 0 1-.14 1 18.45 18.45 0 0 1-.92 3.46c0 .06 0 .13-.07.2s-.28.72-.76 1.82c-.3.69-.69 1.53-1.16 2.47l-.41.78c-.51 1-1.1 2-1.78 3.06-.15.25-.31.48-.47.72a14.26 14.26 0 0 1-2.22 2.55 8.39 8.39 0 0 1-.65.62z" opacity="1" data-original="#f47421"></path>
      <path fill="#333333" d="m17.13 50.44.87-1.71a8.33 8.33 0 0 1 1.56-2.16l-2.11-2.14a8.36 8.36 0 0 1-2.2 1.57l-1.69.85a7 7 0 0 0-1.75 1.26L.32 59.63a1.07 1.07 0 0 0 0 1.53l2.52 2.52a1.07 1.07 0 0 0 1.53 0l11.5-11.5a6.73 6.73 0 0 0 1.26-1.74z" opacity="1" data-original="#333333"></path>
      <path d="m5.42 62.65-1 1a1.09 1.09 0 0 1-1.53 0L.32 61.17a1.08 1.08 0 0 1 0-1.54l1.17-1.17a1.09 1.09 0 0 0 0 1.53L4 62.54a1.07 1.07 0 0 0 1.42.11z" opacity="1" fill="#00000025" data-original="#00000025"></path>
      <path fill="#fff" d="M10.81 51.52a.5.5 0 0 0-.71 0L4 57.41a.49.49 0 0 0 0 .7.48.48 0 0 0 .35.16.49.49 0 0 0 .35-.15l6.07-5.89a.51.51 0 0 0 .04-.71z" opacity=".2"></path>
    </g>
  </symbol>
  <symbol xmlns="http://www.w3.org/2000/svg" version="1.1" xmlns:xlink="http://www.w3.org/1999/xlink" xmlnsSvgjs="http://svgjs.com/svgjs" x="0" y="0" xml:space="preserve" viewBox="0 0 512 512" id="chess">
    <g>
      <path fill="#453d81" d="M238.584 385.588c-3.092-7.698-33.625-86.408-34.084-190.654-.037-8.259-6.742-14.934-15-14.934h-80a15.001 15.001 0 0 0-15 15.067c.48 106.149-33.066 190.467-33.401 191.296a14.995 14.995 0 0 0 1.461 14.016A14.995 14.995 0 0 0 75 407h150.02c8.284 0 15-6.716 15-15 0-2.294-.515-4.468-1.436-6.412z" opacity="1" data-original="#453d81"></path>
      <path fill="#2e2654" d="M238.584 385.588c-3.092-7.698-33.625-86.408-34.084-190.654-.037-8.259-6.742-14.934-15-14.934H150v227h75.02c8.284 0 15-6.716 15-15 0-2.294-.515-4.468-1.436-6.412z" opacity="1" data-original="#2e2654"></path>
      <path fill="#453d81" d="M230 75c-1.67 0-10.434.325-19 6.75-5.379 4.034-11.516 11.12-14.374 23.25H165V75c0-8.284-6.716-15-15-15s-15 6.716-15 15v30h-31.626C100.516 92.87 94.379 85.784 89 81.75 80.434 75.325 71.67 75 70 75c-8.284 0-15 6.716-15 15 0 8.065 6.365 14.644 14.346 14.986C72.785 105.538 75 111.407 75 120v50c0 8.284 6.716 15 15 15h120c8.284 0 15-6.716 15-15v-50c0-8.593 2.215-14.462 5.654-15.014C238.635 104.644 245 98.065 245 90c0-8.284-6.716-15-15-15z" opacity="1" data-original="#453d81"></path>
      <path fill="#2e2654" d="M230 75c-1.67 0-10.434.325-19 6.75-5.379 4.034-11.516 11.12-14.374 23.25H165V75c0-8.284-6.716-15-15-15v125h60c8.284 0 15-6.716 15-15v-50c0-8.593 2.215-14.462 5.654-15.014C238.635 104.644 245 98.065 245 90c0-8.284-6.716-15-15-15z" opacity="1" data-original="#2e2654"></path>
      <path fill="#5e54ac" d="M60 437c-16.542 0-30-13.458-30-30s13.458-30 30-30h180c16.542 0 30 13.458 30 30s-13.458 30-30 30v10H60z" opacity="1" data-original="#5e54ac"></path>
      <path fill="#453d81" d="M240 377h-90v70h90v-10c16.542 0 30-13.458 30-30s-13.458-30-30-30z" opacity="1" data-original="#453d81"></path>
      <path fill="#453d81" d="M255 437H45c-24.813 0-45 20.187-45 45v15c0 8.284 6.716 15 15 15h248.333L300 482c0-24.813-20.187-45-45-45z" opacity="1" data-original="#453d81"></path>
      <path fill="#2e2654" d="M255 437H150v75h113.333L300 482c0-24.813-20.187-45-45-45z" opacity="1" data-original="#2e2654"></path>
      <path fill="#5e54ac" d="M230 195H70c-8.284 0-15-6.716-15-15s6.716-15 15-15h160c8.284 0 15 6.716 15 15s-6.716 15-15 15z" opacity="1" data-original="#5e54ac"></path>
      <path fill="#453d81" d="M230 165h-80v30h80c8.284 0 15-6.716 15-15s-6.716-15-15-15z" opacity="1" data-original="#453d81"></path>
      <circle cx="150" cy="45" r="45" fill="#5e54ac" opacity="1" data-original="#5e54ac"></circle>
      <path fill="#453d81" d="M150 0v90c24.813 0 45-20.187 45-45S174.813 0 150 0z" opacity="1" data-original="#453d81"></path>
      <path fill="#ffb454" d="m462.717 438.574-.027-.013c-2.716-1.683-36.69-24.702-36.69-117.895 0-8.284-6.716-15-15-15h-60c-8.284 0-15 6.716-15 15 0 93.386-34.001 116.244-36.662 117.881-6.488 2.786-9.801 9.583-8.422 16.536C292.31 462.106 298.841 467 306 467h150.02c.43 0 .856-.018 1.277-.054 6.626-.548 12.459-5.254 13.777-11.837 1.388-6.934-1.898-13.725-8.357-16.535z" opacity="1" data-original="#ffb454"></path>
      <path fill="#ff8659" d="m462.717 438.574-.027-.013c-2.716-1.683-36.69-24.702-36.69-117.895 0-8.284-6.716-15-15-15h-30.002V467H456.02c.43 0 .856-.018 1.277-.054 6.626-.548 12.459-5.254 13.777-11.837 1.388-6.934-1.898-13.725-8.357-16.535z" opacity="1" data-original="#ff8659"></path>
      <path fill="#ffb454" d="M429.199 137.835c-12.271-17.901-29.839-28.168-48.199-28.168s-35.928 10.267-48.199 28.168c-11.264 16.433-17.468 38.007-17.468 60.748 0 25.454 6.351 34.818 12.663 47.084l1.972 6.817a15.001 15.001 0 0 0 13.362 8.183h75.34a15.001 15.001 0 0 0 13.362-8.183c.411-.806.892-6.124 1.305-6.926 6.28-12.189 13.331-21.488 13.331-46.974-.001-22.742-6.205-44.315-17.469-60.749z" opacity="1" data-original="#ffb454"></path>
      <path fill="#ff8659" d="M429.199 137.835c-12.271-17.901-29.839-28.168-48.199-28.168h-.002v151h37.672a15.001 15.001 0 0 0 13.362-8.183c.411-.806.892-6.124 1.305-6.926 6.28-12.189 13.331-21.488 13.331-46.974-.001-22.742-6.205-44.315-17.469-60.749z" opacity="1" data-original="#ff8659"></path>
      <path fill="#ffed6a" d="M467 437H295c-24.813 0-45 20.187-45 45v15c0 8.284 6.716 15 15 15h232c8.284 0 15-6.716 15-15v-15c0-24.813-20.187-45-45-45z" opacity="1" data-original="#ffed6a"></path>
      <path fill="#ffb454" d="M467 437h-86.002v75H497c8.284 0 15-6.716 15-15v-15c0-24.813-20.187-45-45-45z" opacity="1" data-original="#ffb454"></path>
      <path fill="#ffed6a" d="M466 290.667h-10.843c-6.006-3.813-21.612-16.47-21.821-45.109l-105.34.109c0 29.31-15.195 41.435-21.004 45H296c-8.284 0-15 6.716-15 15s6.716 15 15 15h170c8.284 0 15-6.716 15-15s-6.716-15-15-15z" opacity="1" data-original="#ffed6a"></path>
      <path fill="#ffb454" d="M466 290.667h-10.843c-6.006-3.813-21.612-16.47-21.821-45.109l-52.338.054v75.055H466c8.284 0 15-6.716 15-15s-6.716-15-15-15z" opacity="1" data-original="#ffb454"></path>
      <circle cx="381" cy="94.667" r="45" fill="#ffed6a" opacity="1" data-original="#ffed6a"></circle>
      <path fill="#ffb454" d="M381 49.667h-.002v90h.001c24.814 0 45.001-20.187 45.001-45s-20.187-45-45-45z" opacity="1" data-original="#ffb454"></path>
    </g>
  </symbol>
</svg>